<svg width="444" height="418" viewBox="0 0 444 418" fill="none" xmlns="http://www.w3.org/2000/svg">
<rect width="414" height="418" rx="20" fill="#E7EDFA"/>
<rect x="380" y="56" width="64" height="64" rx="32" fill="#448AFF"/>
<path d="M407.25 84.8333C408.502 84.8333 409.727 84.4619 410.768 83.7659C411.81 83.07 412.622 82.0809 413.101 80.9236C413.58 79.7664 413.706 78.4929 413.461 77.2644C413.217 76.0358 412.614 74.9074 411.728 74.0216C410.842 73.1359 409.714 72.5327 408.485 72.2883C407.257 72.0439 405.983 72.1694 404.826 72.6487C403.669 73.1281 402.68 73.9398 401.984 74.9814C401.288 76.0229 400.917 77.2473 400.917 78.5C400.917 80.1797 401.584 81.7906 402.771 82.9783C403.959 84.166 405.57 84.8333 407.25 84.8333Z" fill="#F6F9FF"/>
<path d="M419.917 88C420.856 88 421.775 87.7214 422.556 87.1995C423.337 86.6775 423.946 85.9357 424.305 85.0677C424.665 84.1998 424.759 83.2447 424.575 82.3233C424.392 81.4019 423.94 80.5555 423.276 79.8912C422.611 79.2269 421.765 78.7746 420.843 78.5913C419.922 78.408 418.967 78.5021 418.099 78.8616C417.231 79.2211 416.489 79.8299 415.967 80.611C415.445 81.3922 415.167 82.3105 415.167 83.25C415.167 84.5098 415.667 85.718 416.558 86.6088C417.449 87.4996 418.657 88 419.917 88Z" fill="#F6F9FF"/>
<path d="M426.25 99.0835C426.67 99.0835 427.073 98.9167 427.37 98.6197C427.666 98.3228 427.833 97.9201 427.833 97.5001C427.832 96.0204 427.416 94.5705 426.633 93.3152C425.849 92.0599 424.729 91.0493 423.401 90.3981C422.072 89.7468 420.587 89.4811 419.115 89.631C417.643 89.7809 416.242 90.3404 415.072 91.246C413.521 89.7012 411.547 88.6503 409.4 88.2257C407.252 87.8011 405.027 88.0218 403.005 88.8601C400.983 89.6984 399.255 91.1167 398.038 92.9361C396.821 94.7555 396.17 96.8945 396.167 99.0835C396.167 99.5034 396.333 99.9061 396.63 100.203C396.927 100.5 397.33 100.667 397.75 100.667H416.75C417.17 100.667 417.573 100.5 417.87 100.203C418.166 99.9061 418.333 99.5034 418.333 99.0835" fill="#F6F9FF"/>
</svg>
